<?xml version="1.0" standalone="no"?>
<!DOCTYPE svg PUBLIC "-//W3C//DTD SVG 20010904//EN"
 "http://www.w3.org/TR/2001/REC-SVG-20010904/DTD/svg10.dtd">
<svg version="1.0" xmlns="http://www.w3.org/2000/svg"
 width="1920.000000pt" height="1920.000000pt" viewBox="0 0 1920.000000 1920.000000"
 preserveAspectRatio="xMidYMid meet">
<metadata>
Created by potrace 1.14, written by Peter Selinger 2001-2017
</metadata>
<g transform="translate(0.000000,1920.000000) scale(0.100000,-0.100000)"
fill="#000000" stroke="none">
<path d="M6355 16235 c-146 -28 -304 -92 -414 -168 -166 -113 -299 -297 -353
-484 -30 -102 -32 -303 -5 -403 46 -172 166 -352 308 -462 l81 -63 -7 -720
c-4 -396 -10 -723 -14 -727 -11 -12 -2230 -988 -2243 -987 -7 1 -212 205 -455
453 l-442 453 24 59 c174 430 19 890 -365 1089 -122 62 -211 85 -360 92 -139
6 -249 -10 -375 -55 -340 -121 -614 -412 -707 -753 -20 -72 -23 -108 -23 -249
0 -164 0 -166 36 -267 45 -128 86 -196 173 -290 153 -165 340 -249 576 -260
63 -3 141 -1 173 5 l58 9 552 -565 c511 -522 552 -567 554 -601 1 -20 -46
-506 -105 -1081 l-108 -1045 -589 -297 c-325 -164 -597 -297 -606 -298 -9 0
-24 9 -34 20 -28 31 -151 110 -224 142 -190 87 -395 109 -581 63 -36 -9 -112
-40 -170 -68 -92 -45 -116 -62 -200 -146 -109 -110 -162 -196 -209 -336 -193
-580 214 -1261 818 -1366 104 -19 290 -6 386 26 211 69 371 203 474 396 42 79
84 203 96 283 l8 49 555 274 c305 151 558 273 562 271 4 -2 447 -311 984 -688
l976 -685 -6 -70 c-3 -38 -39 -335 -80 -659 -41 -324 -74 -592 -74 -596 0 -4
-15 -10 -34 -13 -49 -8 -156 -53 -244 -102 -284 -161 -445 -445 -429 -755 7
-124 24 -196 75 -305 182 -392 657 -622 1135 -550 605 91 951 643 732 1166
-40 94 -109 195 -186 272 l-69 69 81 642 c45 352 82 642 83 642 2 3 2300 1017
2327 1027 24 10 34 2 160 -119 74 -72 238 -229 366 -349 l232 -220 -4 -45 c-2
-25 -10 -85 -16 -135 -7 -53 -9 -146 -6 -225 30 -731 571 -1328 1299 -1436
146 -21 379 -14 520 16 446 95 840 397 1042 798 14 28 29 52 32 52 4 0 817
-253 1808 -561 990 -309 1822 -568 1849 -576 38 -11 47 -18 47 -37 0 -58 35
-222 71 -331 46 -138 123 -291 206 -408 74 -104 245 -276 348 -349 228 -161
499 -259 770 -277 353 -23 678 65 970 262 123 83 314 275 394 396 161 243 246
501 258 786 32 741 -468 1383 -1205 1548 -82 18 -130 21 -302 22 -179 0 -218
-3 -309 -23 -197 -44 -371 -117 -533 -224 l-89 -58 -58 62 c-33 35 -426 452
-874 928 -461 490 -809 868 -803 871 6 4 281 104 611 224 330 119 628 228 661
240 l61 23 61 -91 c224 -342 554 -569 960 -660 83 -18 128 -21 307 -22 184 0
223 3 314 23 606 136 1055 597 1177 1207 26 126 26 424 0 550 -122 610 -571
1071 -1177 1207 -91 20 -130 23 -314 23 -179 -1 -224 -4 -307 -22 -401 -90
-740 -322 -957 -654 -31 -48 -60 -93 -66 -101 -8 -13 -117 29 -652 251 -354
146 -642 269 -640 272 1 4 379 394 840 867 l837 861 95 -65 c173 -117 353
-192 563 -236 154 -32 431 -32 582 1 304 65 561 203 775 416 218 218 360 488
422 800 27 137 24 424 -6 565 -133 623 -608 1085 -1231 1197 -115 20 -371 23
-480 4 -41 -7 -118 -24 -170 -38 -609 -161 -1068 -714 -1113 -1342 l-2 -34
-1780 -624 c-978 -342 -1787 -625 -1796 -628 -13 -5 -18 4 -24 42 -11 80 -81
278 -136 384 -182 354 -500 625 -880 749 -167 55 -307 73 -514 67 -196 -6
-282 -21 -448 -78 -601 -206 -1017 -788 -1017 -1425 l0 -92 -127 -75 -127 -76
-60 43 c-34 23 -479 337 -991 696 -511 359 -932 655 -934 656 -2 2 0 333 4
737 l7 734 48 17 c179 65 394 265 480 447 71 153 95 367 57 523 -78 318 -341
570 -695 663 -82 22 -123 26 -267 29 -115 2 -193 -1 -240 -11z m9474 -3187
c46 -205 140 -411 261 -574 l60 -79 -64 -65 c-34 -36 -386 -398 -781 -805
-395 -407 -763 -786 -819 -843 l-102 -103 -1110 460 c-758 314 -1108 464
-1106 473 20 75 43 202 52 283 6 55 14 101 18 103 13 6 3557 1250 3562 1251 4
1 16 -45 29 -101z m-9375 -1337 c512 -103 939 -400 1193 -829 49 -82 106 -202
100 -209 -3 -2 -24 1 -48 6 -74 17 -228 13 -311 -8 -286 -73 -507 -275 -858
-786 -57 -82 -107 -154 -111 -159 -22 -24 -128 112 -379 484 -229 340 -317
454 -447 581 -185 181 -347 263 -544 276 -162 11 -315 -35 -464 -138 l-86 -60
40 60 c288 424 752 712 1281 795 145 23 490 16 634 -13z m6703 -942 c552 -227
1002 -417 1000 -421 -5 -16 -880 -909 -888 -906 -5 2 -325 340 -712 752 l-704
749 49 61 c27 34 72 98 100 143 l50 82 52 -23 c28 -12 502 -209 1053 -437z
m-3292 -81 c163 -109 336 -184 532 -229 139 -32 413 -37 568 -11 214 37 395
108 577 227 55 37 104 63 108 58 4 -4 324 -345 711 -757 387 -413 703 -752
703 -754 -1 -2 -265 -274 -585 -604 -321 -330 -636 -654 -700 -721 l-116 -122
-89 61 c-177 122 -402 213 -609 249 -133 23 -368 23 -495 1 -233 -41 -410
-112 -608 -244 l-83 -55 -82 79 c-45 44 -150 144 -232 224 -83 80 -199 192
-258 249 l-108 105 116 1140 c64 628 118 1146 120 1152 2 7 63 48 136 92 l133
80 86 -80 c47 -44 125 -107 175 -140z m7685 -282 c370 -80 678 -315 845 -646
87 -174 129 -351 129 -550 0 -145 -14 -237 -56 -370 -206 -650 -906 -1003
-1556 -784 -349 117 -640 409 -762 764 -80 233 -81 525 -3 765 98 304 317 562
600 708 105 54 238 100 338 116 39 6 81 13 95 15 53 9 299 -3 370 -18z
m-12433 -260 c46 -54 156 -207 245 -340 297 -439 410 -586 553 -710 84 -73
133 -108 226 -159 53 -30 76 -37 120 -37 30 0 70 -5 89 -10 19 -6 78 -13 130
-16 148 -10 261 27 368 119 58 49 60 51 259 340 80 116 178 255 217 307 81
109 202 240 221 240 8 0 33 -27 57 -59 24 -33 47 -60 52 -60 8 -1 58 29 195
118 l23 15 -7 -55 c-47 -366 -217 -723 -473 -990 -58 -61 -138 -137 -177 -169
-637 -520 -1563 -570 -2232 -119 -274 185 -493 450 -620 752 -31 75 -96 277
-91 282 2 2 45 -24 96 -56 l93 -59 57 91 c117 185 264 404 326 484 89 114 167
196 180 192 6 -2 48 -47 93 -101z m10053 -210 c472 -196 684 -288 682 -298
-24 -91 -44 -206 -53 -305 -14 -142 -2 -307 32 -458 12 -49 23 -99 25 -110 5
-20 -213 -102 -1342 -507 l-103 -36 -466 495 c-256 273 -464 500 -462 506 1 5
221 234 487 508 328 338 489 497 500 494 8 -3 323 -133 700 -289z m-1441
-1416 l381 -405 -31 -13 c-55 -23 -2041 -742 -2050 -742 -5 0 -27 28 -50 63
-23 34 -57 81 -76 105 l-35 43 314 322 c173 177 487 500 699 718 l384 396 42
-41 c23 -22 213 -223 422 -446z m1523 -1618 l916 -976 -38 -46 c-144 -174
-272 -447 -310 -667 -7 -40 -17 -73 -22 -73 -10 0 -3599 1117 -3603 1122 -1 2
4 39 13 83 19 101 21 373 3 475 -7 41 -24 117 -37 169 -14 51 -23 95 -21 98 5
5 2169 792 2177 792 3 0 417 -440 922 -977z"/>
</g>
</svg>
