<?xml version="1.0" encoding="UTF-8" standalone="no"?>
<!-- Created with Inkscape (http://www.inkscape.org/) -->

<svg
   version="1.1"
   id="svg2"
   width="499.96997"
   height="172.62247"
   viewBox="0 0 499.96996 172.62247"
   sodipodi:docname="cover.svg"
   inkscape:version="1.2 (1:1.2+202206011326+fc4e4096c5)"
   xmlns:inkscape="http://www.inkscape.org/namespaces/inkscape"
   xmlns:sodipodi="http://sodipodi.sourceforge.net/DTD/sodipodi-0.dtd"
   xmlns="http://www.w3.org/2000/svg"
   xmlns:svg="http://www.w3.org/2000/svg">
  <defs
     id="defs6">
    <clipPath
       clipPathUnits="userSpaceOnUse"
       id="clipPath20">
      <path
         d="M 0,0 H 121 V 102.812 H 0 Z"
         id="path18" />
    </clipPath>
    <clipPath
       clipPathUnits="userSpaceOnUse"
       id="clipPath28">
      <path
         d="M 0,0 H 122 V 122 H 0 Z"
         id="path26" />
    </clipPath>
    <radialGradient
       fx="0"
       fy="0"
       cx="0"
       cy="0"
       r="1"
       gradientUnits="userSpaceOnUse"
       gradientTransform="matrix(20.876481,0,0,20.421157,38.380679,58.337529)"
       spreadMethod="pad"
       id="radialGradient38">
      <stop
         style="stop-opacity:1;stop-color:#ffffff"
         offset="0"
         id="stop34" />
      <stop
         style="stop-opacity:1;stop-color:#52ace4"
         offset="1"
         id="stop36" />
    </radialGradient>
    <clipPath
       clipPathUnits="userSpaceOnUse"
       id="clipPath60">
      <path
         d="M 0,0 H 121 V 105 H 0 Z"
         id="path58" />
    </clipPath>
    <clipPath
       clipPathUnits="userSpaceOnUse"
       id="clipPath66">
      <path
         d="m -29.895,-64.648 167.977,-1.957 -2.098,169.414 -167.976,1.957 z"
         id="path64" />
    </clipPath>
    <clipPath
       clipPathUnits="userSpaceOnUse"
       id="clipPath74">
      <path
         d="M 0,0 H 122 V 122 H 0 Z"
         id="path72" />
    </clipPath>
    <radialGradient
       fx="0"
       fy="0"
       cx="0"
       cy="0"
       r="1"
       gradientUnits="userSpaceOnUse"
       gradientTransform="matrix(17.256135,-0.200851,-0.204605,16.528015,38.381014,58.332677)"
       spreadMethod="pad"
       id="radialGradient84">
      <stop
         style="stop-opacity:1;stop-color:#ffffff"
         offset="0"
         id="stop80" />
      <stop
         style="stop-opacity:1;stop-color:#5dade4"
         offset="1"
         id="stop82" />
    </radialGradient>
    <clipPath
       clipPathUnits="userSpaceOnUse"
       id="clipPath116">
      <path
         d="m 0,11.062 h 121 v 92.16 H 0 Z"
         id="path114" />
    </clipPath>
    <clipPath
       clipPathUnits="userSpaceOnUse"
       id="clipPath126">
      <path
         d="M 0,0 H 122 V 122 H 0 Z"
         id="path124" />
    </clipPath>
    <clipPath
       clipPathUnits="userSpaceOnUse"
       id="clipPath250">
      <path
         d="M 0,11.062 H 121 V 121 H 0 Z"
         id="path248" />
    </clipPath>
    <clipPath
       clipPathUnits="userSpaceOnUse"
       id="clipPath260">
      <path
         d="M 0,0 H 122 V 122 H 0 Z"
         id="path258" />
    </clipPath>
  </defs>
  <sodipodi:namedview
     id="namedview4"
     pagecolor="#ffffff"
     bordercolor="#666666"
     borderopacity="1.0"
     inkscape:showpageshadow="2"
     inkscape:pageopacity="0.0"
     inkscape:pagecheckerboard="0"
     inkscape:deskcolor="#d1d1d1"
     showgrid="false"
     inkscape:zoom="1.3094742"
     inkscape:cx="213.06261"
     inkscape:cy="59.565891"
     inkscape:window-width="1862"
     inkscape:window-height="1043"
     inkscape:window-x="1978"
     inkscape:window-y="0"
     inkscape:window-maximized="1"
     inkscape:current-layer="g10">
    <inkscape:page
       x="0"
       y="0"
       id="page8"
       width="499.96997"
       height="172.62247" />
  </sodipodi:namedview>
  <g
     id="g10"
     inkscape:groupmode="layer"
     inkscape:label="Page 1"
     transform="matrix(1.3333333,0,0,1.3333333,174.0413,9.6741261)">
    <g
       id="g12" />
    <g
       id="g746"
       transform="translate(-3.4783382,-1.8754158)">
      <g
         id="g14">
        <g
           id="g16"
           clip-path="url(#clipPath20)">
          <g
             id="g22">
            <g
               id="g24" />
            <g
               id="g52">
              <g
                 clip-path="url(#clipPath28)"
                 id="g50">
                <g
                   id="g48">
                  <g
                     id="g46">
                    <g
                       id="g44">
                      <g
                         id="g42">
                        <path
                           d="M 21.023,46.254 18.848,67.551 36.613,80.039 56.559,71.238 58.734,49.941 40.965,37.449 Z"
                           style="fill:url(#radialGradient38);stroke:none"
                           id="path40" />
                      </g>
                    </g>
                  </g>
                </g>
              </g>
            </g>
          </g>
        </g>
      </g>
      <g
         id="g54">
        <g
           id="g56"
           clip-path="url(#clipPath60)">
          <g
             id="g62"
             clip-path="url(#clipPath66)">
            <g
               id="g68">
              <g
                 id="g70" />
              <g
                 id="g98">
                <g
                   clip-path="url(#clipPath74)"
                   id="g96">
                  <g
                     id="g94">
                    <g
                       id="g92">
                      <g
                         id="g90">
                        <g
                           id="g88">
                          <path
                             d="M 24.227,48.809 22.215,66.062 36.777,76 53.352,68.684 55.363,51.43 40.801,41.488 Z"
                             style="fill:url(#radialGradient84);stroke:none"
                             id="path86" />
                        </g>
                      </g>
                    </g>
                  </g>
                </g>
              </g>
            </g>
          </g>
        </g>
      </g>
      <g
         id="g100">
        <g
           id="g102"
           transform="scale(1,-1)">
          <path
             d="m 56.559,-71.238 -19.946,-8.805 -17.765,12.492 2.175,21.297 19.942,8.809 17.769,-12.496 z"
             style="fill:none;stroke:#181517;stroke-width:1.579;stroke-linecap:butt;stroke-linejoin:miter;stroke-miterlimit:4;stroke-dasharray:none;stroke-opacity:1"
             id="path104" />
        </g>
        <g
           id="g106"
           transform="scale(1,-1)">
          <path
             d="M 53.352,-68.684 36.777,-76 l -14.562,9.937 2.015,17.258 16.571,7.313 14.562,-9.934 z"
             style="fill:none;stroke:#181517;stroke-width:1.579;stroke-linecap:butt;stroke-linejoin:miter;stroke-miterlimit:4;stroke-dasharray:none;stroke-opacity:1"
             id="path108" />
        </g>
      </g>
      <g
         id="g110">
        <g
           id="g112"
           clip-path="url(#clipPath116)">
          <g
             id="g118">
            <g
               id="g120">
              <g
                 id="g122"
                 clip-path="url(#clipPath126)">
                <g
                   id="g128">
                  <g
                     id="g130"
                     transform="scale(1,-1)">
                    <path
                       d="m 26.168,-60.242 c 0.535,0.84 1.102,1.75 1.687,2.605 0.586,0.86 1.196,1.668 1.817,2.309 3.863,4.844 6.715,-5.473 10.273,-7.438 0.715,0 1.426,-0.492 1.903,0 2.847,3.93 5.461,9.336 8.754,4.27"
                       style="fill:none;stroke:#52afe6;stroke-width:5;stroke-linecap:butt;stroke-linejoin:miter;stroke-miterlimit:4;stroke-dasharray:none;stroke-opacity:1"
                       id="path132" />
                  </g>
                  <g
                     id="g134"
                     transform="scale(1,-1)">
                    <path
                       d="m 40.965,-37.449 0.047,10.75"
                       style="fill:none;stroke:#181517;stroke-width:6.314;stroke-linecap:butt;stroke-linejoin:miter;stroke-miterlimit:4;stroke-dasharray:none;stroke-opacity:1"
                       id="path136" />
                  </g>
                  <path
                     d="m 44.895,24.258 c 0,1.351 -1.457,2.441 -3.254,2.441 -1.801,0 -3.258,-1.09 -3.258,-2.441 0,-1.348 1.457,-2.446 3.258,-2.446 1.797,0 3.254,1.098 3.254,2.446"
                     style="fill:#52afe6;fill-opacity:1;fill-rule:nonzero;stroke:none"
                     id="path138" />
                  <g
                     id="g140"
                     transform="scale(1,-1)">
                    <path
                       d="m 44.895,-24.258 c 0,-1.351 -1.457,-2.441 -3.254,-2.441 -1.801,0 -3.258,1.09 -3.258,2.441 0,1.348 1.457,2.445 3.258,2.445 1.797,0 3.254,-1.097 3.254,-2.445 z"
                       style="fill:none;stroke:#52afe6;stroke-width:6.314;stroke-linecap:butt;stroke-linejoin:miter;stroke-miterlimit:4;stroke-dasharray:none;stroke-opacity:1"
                       id="path142" />
                  </g>
                  <g
                     id="g144"
                     transform="scale(1,-1)">
                    <path
                       d="m 58.621,-50.219 9.359,5.617"
                       style="fill:none;stroke:#181517;stroke-width:6.314;stroke-linecap:butt;stroke-linejoin:miter;stroke-miterlimit:4;stroke-dasharray:none;stroke-opacity:1"
                       id="path146" />
                  </g>
                  <g
                     id="g148"
                     transform="scale(1,-1)">
                    <path
                       d="m 56.113,-71.102 7.852,-7.511"
                       style="fill:none;stroke:#181517;stroke-width:6.314;stroke-linecap:butt;stroke-linejoin:miter;stroke-miterlimit:4;stroke-dasharray:none;stroke-opacity:1"
                       id="path150" />
                  </g>
                  <g
                     id="g152"
                     transform="scale(1,-1)">
                    <path
                       d="m 63.055,-83.043 c -0.993,0.938 -0.778,2.727 0.476,3.984 1.25,1.266 3.071,1.528 4.059,0.59 0.992,-0.941 0.777,-2.726 -0.473,-3.988 -1.254,-1.27 -3.07,-1.527 -4.062,-0.586 z"
                       style="fill:none;stroke:#52afe6;stroke-width:6.314;stroke-linecap:butt;stroke-linejoin:miter;stroke-miterlimit:4;stroke-dasharray:none;stroke-opacity:1"
                       id="path154" />
                  </g>
                  <g
                     id="g156"
                     transform="scale(1,-1)">
                    <path
                       d="m 21.246,-46.523 -7.594,7.765"
                       style="fill:none;stroke:#181517;stroke-width:6.314;stroke-linecap:butt;stroke-linejoin:miter;stroke-miterlimit:4;stroke-dasharray:none;stroke-opacity:1"
                       id="path158" />
                  </g>
                  <path
                     d="m 14.711,34.359 c 0.961,0.973 0.687,2.75 -0.606,3.973 -1.296,1.223 -3.121,1.426 -4.082,0.453 -0.957,-0.973 -0.683,-2.75 0.61,-3.973 1.297,-1.218 3.125,-1.425 4.078,-0.453"
                     style="fill:#52afe6;fill-opacity:1;fill-rule:nonzero;stroke:none"
                     id="path160" />
                  <g
                     id="g162"
                     transform="scale(1,-1)">
                    <path
                       d="m 14.711,-34.359 c 0.961,-0.973 0.687,-2.75 -0.606,-3.973 -1.296,-1.223 -3.121,-1.426 -4.082,-0.453 -0.957,0.972 -0.683,2.75 0.61,3.972 1.297,1.219 3.125,1.426 4.078,0.454 z"
                       style="fill:none;stroke:#52afe6;stroke-width:6.314;stroke-linecap:butt;stroke-linejoin:miter;stroke-miterlimit:4;stroke-dasharray:none;stroke-opacity:1"
                       id="path164" />
                  </g>
                  <g
                     id="g166"
                     transform="scale(1,-1)">
                    <path
                       d="M 18.918,-66.637 9.926,-71.109"
                       style="fill:none;stroke:#181517;stroke-width:6.314;stroke-linecap:butt;stroke-linejoin:miter;stroke-miterlimit:4;stroke-dasharray:none;stroke-opacity:1"
                       id="path168" />
                  </g>
                  <path
                     d="m 5.93,68.84 c 1.226,-0.613 2.89,0.152 3.711,1.719 0.82,1.562 0.492,3.336 -0.739,3.949 C 7.676,75.129 6.016,74.359 5.191,72.793 4.371,71.23 4.699,69.457 5.93,68.84"
                     style="fill:#52afe6;fill-opacity:1;fill-rule:nonzero;stroke:none"
                     id="path170" />
                  <g
                     id="g172"
                     transform="scale(1,-1)">
                    <path
                       d="m 5.93,-68.84 c 1.226,0.613 2.89,-0.152 3.711,-1.719 0.82,-1.562 0.492,-3.336 -0.739,-3.949 -1.226,-0.621 -2.886,0.149 -3.711,1.715 -0.82,1.563 -0.492,3.336 0.739,3.953 z"
                       style="fill:none;stroke:#52afe6;stroke-width:6.314;stroke-linecap:butt;stroke-linejoin:miter;stroke-miterlimit:4;stroke-dasharray:none;stroke-opacity:1"
                       id="path174" />
                  </g>
                  <g
                     id="g176"
                     transform="scale(1,-1)">
                    <path
                       d="M 35.852,-79.063 34.496,-89.73"
                       style="fill:none;stroke:#181517;stroke-width:6.314;stroke-linecap:butt;stroke-linejoin:miter;stroke-miterlimit:4;stroke-dasharray:none;stroke-opacity:1"
                       id="path178" />
                  </g>
                  <path
                     d="m 30.34,91.703 c 0.164,-1.344 1.742,-2.258 3.531,-2.047 1.785,0.211 3.098,1.465 2.934,2.805 -0.164,1.344 -1.743,2.262 -3.532,2.047 -1.785,-0.207 -3.097,-1.465 -2.933,-2.805"
                     style="fill:#52afe6;fill-opacity:1;fill-rule:nonzero;stroke:none"
                     id="path180" />
                  <g
                     id="g182"
                     transform="scale(1,-1)">
                    <path
                       d="m 30.34,-91.703 c 0.164,1.344 1.742,2.258 3.531,2.047 1.785,-0.211 3.098,-1.465 2.934,-2.805 -0.164,-1.344 -1.743,-2.262 -3.532,-2.047 -1.785,0.207 -3.097,1.465 -2.933,2.805 z"
                       style="fill:none;stroke:#52afe6;stroke-width:6.314;stroke-linecap:butt;stroke-linejoin:miter;stroke-miterlimit:4;stroke-dasharray:none;stroke-opacity:1"
                       id="path184" />
                  </g>
                  <g
                     id="g186"
                     transform="scale(1,-1)">
                    <path
                       d="m 56.875,-68.773 2.371,-2.27"
                       style="fill:none;stroke:#181517;stroke-width:1.907;stroke-linecap:butt;stroke-linejoin:miter;stroke-miterlimit:4;stroke-dasharray:none;stroke-opacity:1"
                       id="path188" />
                  </g>
                  <g
                     id="g190"
                     transform="scale(1,-1)">
                    <path
                       d="m 54.457,-72.547 2.371,-2.266"
                       style="fill:none;stroke:#181517;stroke-width:1.907;stroke-linecap:butt;stroke-linejoin:miter;stroke-miterlimit:4;stroke-dasharray:none;stroke-opacity:1"
                       id="path192" />
                  </g>
                  <g
                     id="g194"
                     transform="scale(1,-1)">
                    <path
                       d="m 56.973,-48.883 3.777,2.266"
                       style="fill:none;stroke:#181517;stroke-width:2.548;stroke-linecap:butt;stroke-linejoin:miter;stroke-miterlimit:4;stroke-dasharray:none;stroke-opacity:1"
                       id="path196" />
                  </g>
                  <g
                     id="g198"
                     transform="scale(1,-1)">
                    <path
                       d="m 58.473,-52.508 3.781,2.266"
                       style="fill:none;stroke:#181517;stroke-width:2.548;stroke-linecap:butt;stroke-linejoin:miter;stroke-miterlimit:4;stroke-dasharray:none;stroke-opacity:1"
                       id="path200" />
                  </g>
                  <g
                     id="g202"
                     transform="scale(1,-1)">
                    <path
                       d="m 38.461,-38.207 0.012,2.266"
                       style="fill:none;stroke:#181517;stroke-width:1.333;stroke-linecap:butt;stroke-linejoin:miter;stroke-miterlimit:4;stroke-dasharray:none;stroke-opacity:1"
                       id="path204" />
                  </g>
                  <g
                     id="g206"
                     transform="scale(1,-1)">
                    <path
                       d="m 43.254,-39.211 0.012,2.938"
                       style="fill:none;stroke:#181517;stroke-width:1.725;stroke-linecap:butt;stroke-linejoin:miter;stroke-miterlimit:4;stroke-dasharray:none;stroke-opacity:1"
                       id="path208" />
                  </g>
                  <g
                     id="g210"
                     transform="scale(1,-1)">
                    <path
                       d="m 20.789,-49.391 -1.941,1.981"
                       style="fill:none;stroke:#181517;stroke-width:1.613;stroke-linecap:butt;stroke-linejoin:miter;stroke-miterlimit:4;stroke-dasharray:none;stroke-opacity:1"
                       id="path212" />
                  </g>
                  <g
                     id="g214"
                     transform="scale(1,-1)">
                    <path
                       d="m 19.461,-63.848 -2.852,-1.414"
                       style="fill:none;stroke:#181517;stroke-width:1.838;stroke-linecap:butt;stroke-linejoin:miter;stroke-miterlimit:4;stroke-dasharray:none;stroke-opacity:1"
                       id="path216" />
                  </g>
                  <g
                     id="g218"
                     transform="scale(1,-1)">
                    <path
                       d="m 33.223,-77.617 -0.168,-1.418"
                       style="fill:none;stroke:#181517;stroke-width:0.814;stroke-linecap:butt;stroke-linejoin:miter;stroke-miterlimit:4;stroke-dasharray:none;stroke-opacity:1"
                       id="path220" />
                  </g>
                </g>
              </g>
            </g>
          </g>
          <g
             id="g224"
             transform="scale(1,-1)">
            <path
               d="m 76.582,-45.637 24.457,8.567"
               style="fill:none;stroke:#1c1918;stroke-width:1.835;stroke-linecap:butt;stroke-linejoin:miter;stroke-miterlimit:4;stroke-dasharray:none;stroke-opacity:1"
               id="path226" />
          </g>
          <g
             id="g228"
             transform="scale(1,-1)">
            <path
               d="m 67.914,-46.023 41.793,-17.305"
               style="fill:none;stroke:#1c1918;stroke-width:1.835;stroke-linecap:butt;stroke-linejoin:miter;stroke-miterlimit:4;stroke-dasharray:none;stroke-opacity:1"
               id="path230" />
          </g>
          <g
             id="g232"
             transform="scale(1,-1)">
            <path
               d="m 67.914,-79.922 41.793,42.988"
               style="fill:none;stroke:#1c1918;stroke-width:1.835;stroke-linecap:butt;stroke-linejoin:miter;stroke-miterlimit:4;stroke-dasharray:none;stroke-opacity:1"
               id="path234" />
          </g>
          <g
             id="g236"
             transform="scale(1,-1)">
            <path
               d="m 74.676,-76.633 35.031,12.707"
               style="fill:none;stroke:#1c1918;stroke-width:1.835;stroke-linecap:butt;stroke-linejoin:miter;stroke-miterlimit:4;stroke-dasharray:none;stroke-opacity:1"
               id="path238" />
          </g>
          <g
             id="g240"
             transform="scale(1,-1)">
            <path
               d="m 67.914,-46.023 41.793,-44.442"
               style="fill:none;stroke:#1c1918;stroke-width:1.835;stroke-linecap:butt;stroke-linejoin:miter;stroke-miterlimit:4;stroke-dasharray:none;stroke-opacity:1"
               id="path242" />
          </g>
        </g>
      </g>
      <g
         id="g244">
        <g
           id="g246"
           clip-path="url(#clipPath250)">
          <g
             id="g252">
            <g
               id="g254">
              <g
                 id="g256"
                 clip-path="url(#clipPath260)">
                <g
                   id="g262">
                  <path
                     d="m 76.582,46.023 c 0,4.786 -3.883,8.665 -8.668,8.665 -4.785,0 -8.668,-3.879 -8.668,-8.665 0,-4.785 3.883,-8.668 8.668,-8.668 4.785,0 8.668,3.883 8.668,8.668"
                     style="fill:#52afe6;fill-opacity:1;fill-rule:nonzero;stroke:none"
                     id="path264" />
                  <g
                     id="g266"
                     transform="scale(1,-1)">
                    <path
                       d="m 76.582,-46.023 c 0,-4.786 -3.883,-8.665 -8.668,-8.665 -4.785,0 -8.668,3.879 -8.668,8.665 0,4.785 3.883,8.668 8.668,8.668 4.785,0 8.668,-3.883 8.668,-8.668 z"
                       style="fill:none;stroke:#1c1918;stroke-width:1.835;stroke-linecap:butt;stroke-linejoin:miter;stroke-miterlimit:4;stroke-dasharray:none;stroke-opacity:1"
                       id="path268" />
                  </g>
                  <path
                     d="m 76.582,79.922 c 0,4.785 -3.883,8.668 -8.668,8.668 -4.785,0 -8.668,-3.883 -8.668,-8.668 0,-4.789 3.883,-8.668 8.668,-8.668 4.785,0 8.668,3.879 8.668,8.668"
                     style="fill:#52afe6;fill-opacity:1;fill-rule:nonzero;stroke:none"
                     id="path270" />
                  <g
                     id="g272"
                     transform="scale(1,-1)">
                    <path
                       d="m 76.582,-79.922 c 0,-4.785 -3.883,-8.668 -8.668,-8.668 -4.785,0 -8.668,3.883 -8.668,8.668 0,4.789 3.883,8.668 8.668,8.668 4.785,0 8.668,-3.879 8.668,-8.668 z"
                       style="fill:none;stroke:#1c1918;stroke-width:1.835;stroke-linecap:butt;stroke-linejoin:miter;stroke-miterlimit:4;stroke-dasharray:none;stroke-opacity:1"
                       id="path274" />
                  </g>
                  <g
                     id="g276"
                     transform="scale(1,-1)">
                    <path
                       d="m 76.582,-82.848 24.457,-7.617"
                       style="fill:none;stroke:#1c1918;stroke-width:1.961;stroke-linecap:butt;stroke-linejoin:miter;stroke-miterlimit:4;stroke-dasharray:none;stroke-opacity:1"
                       id="path278" />
                  </g>
                  <path
                     d="m 118.375,36.934 c 0,4.785 -3.883,8.664 -8.668,8.664 -4.785,0 -8.668,-3.879 -8.668,-8.664 0,-4.789 3.883,-8.668 8.668,-8.668 4.785,0 8.668,3.879 8.668,8.668"
                     style="fill:#f79232;fill-opacity:1;fill-rule:nonzero;stroke:none"
                     id="path280" />
                  <g
                     id="g282"
                     transform="scale(1,-1)">
                    <path
                       d="m 118.375,-36.934 c 0,-4.785 -3.883,-8.664 -8.668,-8.664 -4.785,0 -8.668,3.879 -8.668,8.664 0,4.789 3.883,8.668 8.668,8.668 4.785,0 8.668,-3.879 8.668,-8.668 z"
                       style="fill:none;stroke:#1c1918;stroke-width:1.835;stroke-linecap:butt;stroke-linejoin:miter;stroke-miterlimit:4;stroke-dasharray:none;stroke-opacity:1"
                       id="path284" />
                  </g>
                  <path
                     d="m 118.375,90.465 c 0,4.785 -3.883,8.668 -8.668,8.668 -4.785,0 -8.668,-3.883 -8.668,-8.668 0,-4.785 3.883,-8.668 8.668,-8.668 4.785,0 8.668,3.883 8.668,8.668"
                     style="fill:#ef3524;fill-opacity:1;fill-rule:nonzero;stroke:none"
                     id="path286" />
                  <g
                     id="g288"
                     transform="scale(1,-1)">
                    <path
                       d="m 118.375,-90.465 c 0,-4.785 -3.883,-8.668 -8.668,-8.668 -4.785,0 -8.668,3.883 -8.668,8.668 0,4.785 3.883,8.668 8.668,8.668 4.785,0 8.668,-3.883 8.668,-8.668 z"
                       style="fill:none;stroke:#1c1918;stroke-width:1.835;stroke-linecap:butt;stroke-linejoin:miter;stroke-miterlimit:4;stroke-dasharray:none;stroke-opacity:1"
                       id="path290" />
                  </g>
                  <path
                     d="m 118.375,63.328 c 0,4.785 -3.883,8.668 -8.668,8.668 -4.785,0 -8.668,-3.883 -8.668,-8.668 0,-4.785 3.883,-8.668 8.668,-8.668 4.785,0 8.668,3.883 8.668,8.668"
                     style="fill:#ffffff;fill-opacity:1;fill-rule:nonzero;stroke:none"
                     id="path292" />
                  <g
                     id="g294"
                     transform="scale(1,-1)">
                    <path
                       d="m 118.375,-63.328 c 0,-4.785 -3.883,-8.668 -8.668,-8.668 -4.785,0 -8.668,3.883 -8.668,8.668 0,4.785 3.883,8.668 8.668,8.668 4.785,0 8.668,-3.883 8.668,-8.668 z"
                       style="fill:none;stroke:#1c1918;stroke-width:1.835;stroke-linecap:butt;stroke-linejoin:miter;stroke-miterlimit:4;stroke-dasharray:none;stroke-opacity:1"
                       id="path296" />
                  </g>
                </g>
              </g>
            </g>
          </g>
        </g>
      </g>
    </g>
    <rect
       style="opacity:0.769596;fill:#29b6f6;stroke-width:3.18818;stroke-linecap:round"
       id="rect577"
       width="374.97748"
       height="129.46686"
       x="-130.53098"
       y="-7.2555947" />
  </g>
</svg>
